<svg width="511" height="319" viewBox="0 0 511 319" fill="none" xmlns="http://www.w3.org/2000/svg">
<g clip-path="url(#clip0_3245_1999)">
<path d="M497.941 318.31L28.0647 318.54C27.7932 318.54 27.5248 318.517 27.2746 318.473C27.0251 318.428 26.7969 318.363 26.6051 318.281C26.4132 318.198 26.2608 318.101 26.1577 317.993C26.0538 317.886 26 317.77 26 317.654C26 317.537 26.0538 317.422 26.1577 317.314C26.2608 317.207 26.4132 317.109 26.6051 317.027C26.7969 316.944 27.0251 316.879 27.2746 316.835C27.5248 316.79 27.7932 316.768 28.0647 316.768L497.941 316.54C498.487 316.54 499.01 316.633 499.396 316.799C499.782 316.965 500 317.19 500 317.425C500 317.66 499.782 317.885 499.396 318.051C499.01 318.217 498.487 318.31 497.941 318.31Z" fill="#CACACA"/>
<path d="M212.603 23.0499L212.461 23.0119L213.722 18.2699C214.124 16.7569 213.21 15.1819 211.698 14.7799L201.595 12.0949C200.083 11.6929 198.508 12.6059 198.106 14.1189L191.156 40.2649C190.754 41.7769 191.668 43.3519 193.18 43.7539L203.282 46.4389C204.795 46.8409 206.37 45.9279 206.772 44.4149L211.565 26.3819L211.708 26.4199L212.603 23.0499Z" fill="#3F3D56"/>
<path d="M213.155 17.9161L206.171 44.1901C205.871 45.3191 204.695 46.0021 203.565 45.7021L193.443 43.0111C192.314 42.7111 191.632 41.5341 191.932 40.4051L198.916 14.1311C199.186 13.1131 200.246 12.4981 201.265 12.7691L202.694 13.1491C202.512 13.3931 202.446 13.7051 202.514 14.0011C202.605 14.3341 202.859 14.5991 203.187 14.7031L209.076 16.2681C209.414 16.3411 209.766 16.2381 210.01 15.9941C210.216 15.7701 210.313 15.4661 210.277 15.1641L211.793 15.5681C212.811 15.8381 213.426 16.8981 213.155 17.9161Z" fill="#E1E3E4"/>
<path d="M159.289 77.9708L157.284 66.3488L187.771 52.5808L194.355 40.9238C193.718 37.8588 195.686 34.8578 198.751 34.2208C201.455 33.6588 204.11 35.1248 205.135 37.5828C205.271 37.9108 205.379 38.2558 205.454 38.6168C205.953 41.0168 204.852 43.4648 202.726 44.6858L191.895 61.4308L159.289 77.9708Z" fill="#6F4141"/>
<path d="M150.022 68.469L163.751 61.457L167.386 75.104L157.849 82.1731L150.022 68.469Z" fill="#BCD6E7"/>
<path d="M119.213 300.433H127.514L131.463 268.413H119.212L119.213 300.433Z" fill="#6F4141"/>
<path d="M130.277 301.18V295.553L128.094 295.686L119.211 296.212L117.154 296.338L115.583 315.187L115.498 316.197H121.393L121.582 315.194L122.438 310.632L124.649 315.194L125.133 316.197H140.76C142.696 316.185 144.261 314.617 144.269 312.682C144.929 309.601 131.933 302.942 130.277 301.18Z" fill="#2F2E41"/>
<path d="M20.8728 270.545L27.6598 275.325L49.3288 251.423L39.3118 244.367L20.8728 270.545Z" fill="#6F4141"/>
<path d="M29.73 276.917L32.971 272.316L31.11 271.168L23.545 266.482L21.791 265.401L9.651 279.905L9 280.683L13.819 284.077L14.552 283.366L17.878 280.13L17.059 285.132L16.877 286.231L29.652 295.231C31.241 296.336 33.424 295.955 34.545 294.378C36.859 292.239 30.069 279.311 29.73 276.917Z" fill="#2F2E41"/>
<path d="M132.049 93.202L121.363 88.207L100.055 113.994L87.0761 117.277C84.2871 115.855 80.8731 116.964 79.4521 119.753C78.0301 122.542 79.1391 125.955 81.9281 127.376C84.1121 128.489 86.7641 128.072 88.5011 126.343L107.507 120.303L132.049 93.202Z" fill="#6F4141"/>
<path d="M121.276 134.74C121.276 134.74 103.744 146.156 108.38 153.742C108.54 154.004 71.0359 206.071 71.0359 206.071L28.9819 251.411L43.4379 264.553C43.4379 264.553 83.39 222.95 90.092 215.927C96.794 208.904 126.069 173.771 126.069 173.771L127.146 217.19L115.939 277.356L132.672 276.295L148.958 215.934L154.97 147.559L121.276 134.74Z" fill="#2F2E41"/>
<path d="M133.764 66.2238L126.392 71.8109L117.988 89.7469L126.069 100.721C126.069 100.721 132.866 112.5 121.986 123.908C111.107 135.316 102.752 147.5 111.46 147.065C120.168 146.63 155.437 164.568 155.669 149.872C155.901 135.176 156.371 123.908 156.371 123.908L165.617 100.456C165.617 100.456 171.126 86.4649 167.258 82.2769C163.391 78.0879 158.212 72.7359 158.212 72.7359L148.794 63.3188H140.291L133.764 66.2238Z" fill="#BCD6E7"/>
<path d="M147.527 31.7638C164.066 41.1758 150.488 66.0099 133.64 57.1669C117.101 47.7548 130.679 22.9218 147.527 31.7638Z" fill="#6F4141"/>
<path d="M156.371 36.9839C155.212 38.4909 152.791 37.7839 148.049 38.8599C148.059 37.2529 147.874 35.6499 147.496 34.0879C147.143 36.0219 146.37 37.8559 145.231 39.4579C141.114 39.9149 146.161 52.4229 144.053 61.6189C141.337 42.2179 135.624 47.3009 138.51 51.1489C140.358 53.6129 139.126 61.0029 133.583 57.3079C124.438 61.6539 111.412 40.0629 125.849 29.9369C125.591 24.4629 131.681 23.5999 135.431 25.2819C144.532 18.5019 154.93 27.1899 156.371 36.9839Z" fill="black"/>
<path d="M113.934 22.8258C110.252 45.4658 90.515 18.6628 81.235 40.9428C78.317 49.0118 83.323 54.7838 86.49 61.4808C87.212 66.9849 80.052 69.7779 79.302 74.8429C79.093 86.4589 97.832 85.7489 103.071 78.4199C108.454 70.7489 102.026 60.4568 105.261 52.2228C109.809 40.7898 128.302 40.7048 129.913 27.4048C126.793 22.9618 118.403 17.8728 113.934 22.8258Z" fill="black"/>
<path d="M128.851 25.039C128.73 25.089 128.61 25.14 128.502 25.197H128.496C128.394 25.248 128.293 25.299 128.192 25.356C128.179 25.362 128.173 25.368 128.16 25.375C128.027 25.248 127.894 25.121 127.754 24.994C127.718 25.201 127.727 25.413 127.779 25.616L127.798 25.692C127.925 25.825 128.058 25.952 128.198 26.085C128.325 25.99 128.445 25.888 128.572 25.793C128.648 25.73 128.724 25.666 128.807 25.603C128.819 25.438 128.838 25.248 128.857 25.039H128.851ZM132.668 17.988C129.84 17.342 128.927 21.038 128.654 22.82C127.627 16.353 123.354 18.388 124.831 22.801C125.302 24.107 126.043 25.3 127.006 26.3C127.139 26.453 127.285 26.605 127.437 26.757C127.266 27.645 128.128 27.416 129.295 26.598C130.156 25.986 130.953 25.287 131.672 24.512C133.999 22.071 135.813 18.806 132.668 17.988ZM132.757 21.628C131.884 22.753 130.905 23.791 129.834 24.728C129.498 25.032 129.155 25.324 128.807 25.603C128.8 25.66 128.8 25.711 128.794 25.755C128.769 25.817 128.74 25.876 128.705 25.933C128.35 26.573 127.951 26.224 127.798 25.692C127.786 25.673 127.767 25.654 127.754 25.635C127.247 25.111 126.807 24.528 126.442 23.898C123.823 19.358 128.039 16.27 127.83 24.747C127.792 24.825 127.766 24.908 127.754 24.994C127.718 25.201 127.727 25.413 127.779 25.616L127.798 25.692C127.925 25.825 128.058 25.952 128.198 26.085C128.325 25.99 128.445 25.888 128.572 25.793C128.648 25.73 128.724 25.667 128.807 25.603C128.819 25.438 128.838 25.248 128.857 25.039V25.032C129.022 23.333 129.472 20.277 130.303 19.447C132.129 18.045 134.494 19.561 132.756 21.628H132.757ZM128.851 25.039C128.731 25.089 128.61 25.14 128.502 25.197H128.496C128.394 25.248 128.293 25.299 128.192 25.356C128.179 25.362 128.173 25.368 128.16 25.375C128.027 25.248 127.894 25.121 127.754 24.994C127.718 25.201 127.727 25.413 127.779 25.616L127.798 25.692C127.925 25.825 128.058 25.952 128.198 26.085C128.325 25.99 128.445 25.888 128.572 25.793C128.648 25.73 128.724 25.666 128.807 25.603C128.819 25.438 128.838 25.248 128.857 25.039H128.851Z" fill="black"/>
<path d="M388.762 302.33L380.643 304.177L369.653 273.738L381.637 271.012L388.762 302.33Z" fill="#FFB6B6"/>
<path d="M390.976 310.734L366.008 316.415L365.936 316.099C364.715 310.732 368.076 305.392 373.443 304.17L377.217 299.672L386.513 301.196L388.693 300.7L390.976 310.734Z" fill="#2F2E41"/>
<path d="M494.639 286.329L487.627 290.819L466.972 265.906L477.322 259.279L494.639 286.329Z" fill="#FFB6B6"/>
<path d="M499.571 293.486L478.006 307.293L477.831 307.02C474.863 302.385 476.215 296.221 480.85 293.253L480.851 293.252L482.876 287.742L492.139 286.025L494.022 284.82L499.571 293.486Z" fill="#2F2E41"/>
<path d="M383.358 150.702L377.25 166.632L348.594 223.156L373.773 288.91L386.768 285.48L376.058 223.156L406.786 185.819L424.627 224.181L475.881 280.691L487.709 272.806L449.597 214.324L424.218 140.159L383.358 150.702Z" fill="#43474B"/>
<path d="M303.23 10.5507C303.444 10.4857 303.567 10.2557 303.502 10.0417L302.244 5.87968L302.242 5.87668C302.178 5.66468 301.951 5.54268 301.739 5.60668C301.693 5.62068 301.651 5.64268 301.613 5.67068L300.19 0.964679C299.974 0.251678 299.209 -0.158322 298.496 0.0576782L255.965 12.9157C255.251 13.1317 254.842 13.8957 255.058 14.6097L272.32 71.7077C272.536 72.4217 273.3 72.8307 274.014 72.6157L316.545 59.7567C317.258 59.5417 317.668 58.7767 317.452 58.0627L304.862 16.4187C304.909 16.4217 304.957 16.4157 305.003 16.4017C305.215 16.3377 305.337 16.1107 305.272 15.8987C305.272 15.8987 305.272 15.8967 305.271 15.8947L304.013 11.7327L304.012 11.7297C303.948 11.5177 303.721 11.3957 303.509 11.4597C303.463 11.4737 303.42 11.4947 303.382 11.5237L303.092 10.5657C303.139 10.5687 303.185 10.5637 303.23 10.5507Z" fill="#3F3D56"/>
<path d="M296.662 3.37957C297.375 3.16457 298.14 3.57357 298.355 4.28757L314.084 56.3126C314.3 57.0266 313.89 57.7916 313.177 58.0066L275.849 69.2926C275.135 69.5076 274.37 69.0986 274.155 68.3846L258.426 16.3596C258.21 15.6456 258.62 14.8806 259.333 14.6656L296.662 3.37957Z" fill="#E1E3E4"/>
<path d="M300.932 8.50875C301.219 8.42175 301.382 8.11776 301.295 7.83075C301.208 7.54375 300.905 7.38075 300.617 7.46775C300.33 7.55475 300.168 7.85775 300.254 8.14575C300.341 8.43275 300.645 8.59575 300.932 8.50875Z" fill="white"/>
<path d="M414.18 75.5583L404.125 64.7553L386.876 62.3823L365.741 77.1783L365.954 93.5554L376.402 132.146C376.402 132.146 372.422 159.872 383.538 159.593C394.653 159.315 400.712 153.774 405.239 154.902C409.767 156.03 429.012 160.831 430.231 155.802C431.451 150.773 437.934 154.374 437.649 149.616C437.365 144.859 420.099 110.567 420.099 110.567L423.12 86.4293C423.785 81.1193 420.019 76.2753 414.708 75.6103C414.533 75.5883 414.357 75.5713 414.18 75.5583Z" fill="#013E5E"/>
<path d="M483.571 143.625C480.244 144.331 476.974 142.206 476.267 138.879C476.192 138.524 476.148 138.163 476.136 137.801L429.904 119.599L438.703 112.391L482.533 131.37C485.951 131.485 488.629 134.349 488.514 137.768C488.418 140.628 486.374 143.049 483.571 143.625Z" fill="#FFB6B6"/>
<path d="M418.088 77.5606C418.088 77.5606 410.212 77.4996 409.245 86.4646C408.278 95.4296 424.791 118.167 427.343 121.912C428.142 123.084 431.576 124.418 435.916 125.697C437.864 126.271 439.995 126.835 442.153 127.368C443.401 127.676 443.959 129.745 445.195 130.029C446.424 130.312 448.331 128.809 449.487 129.06C454.977 130.251 459.316 131.046 459.316 131.046L469.58 124.051C464.402 116.406 454.497 113.278 443.275 111.409L418.088 77.5606Z" fill="#013E5E"/>
<path d="M302.202 35.9284C302.72 39.2904 305.865 41.5954 309.227 41.0774C309.585 41.0224 309.938 40.9354 310.281 40.8184L343.675 77.6094L347.301 66.8284L314.03 32.5594C312.712 29.4034 309.086 27.9134 305.93 29.2314C303.289 30.3344 301.748 33.1024 302.202 35.9284Z" fill="#FFB6B6"/>
<path d="M387.173 73.7736C387.173 73.7736 390.019 81.1176 381.977 85.1966C373.936 89.2756 346.825 81.8836 342.419 80.8236C341.04 80.4906 338.576 77.7526 335.843 74.1466C334.616 72.5276 333.335 70.7336 332.073 68.9046C331.342 67.8466 329.209 68.0576 328.506 67.0026C327.807 65.9536 328.537 63.6376 327.893 62.6446C324.834 57.9326 322.555 54.1566 322.555 54.1566L325.462 42.0806C334.445 44.2156 340.878 52.3716 346.6 62.2046L387.173 73.7736Z" fill="#013E5E"/>
<path d="M395.844 59.6336C404.908 59.6336 412.256 52.2856 412.256 43.2216C412.256 34.1576 404.908 26.8096 395.844 26.8096C386.78 26.8096 379.432 34.1576 379.432 43.2216C379.432 52.2856 386.78 59.6336 395.844 59.6336Z" fill="#FFB6B6"/>
<path d="M414.579 33.8244C412.862 31.0574 409.709 29.5214 406.472 29.8734C405.59 23.8234 399.97 19.6344 393.92 20.5174C391.671 20.8454 389.577 21.8574 387.923 23.4164C386.938 22.7224 385.661 22.5954 384.557 23.0794C383.476 23.5714 382.536 24.3264 381.822 25.2754C378.15 29.8544 377.294 36.0814 379.593 41.4814C379.209 40.0864 380.608 38.7734 382.02 38.4604C383.433 38.1474 384.915 38.4434 386.348 38.2394C388.184 37.9784 389.835 36.9124 391.674 36.6734C393.234 36.5714 394.798 36.7724 396.282 37.2654C397.765 37.7574 399.327 37.9674 400.887 37.8834C402.435 37.6994 404.429 43.5664 404.402 47.6984C404.397 48.4814 404.559 49.4864 405.324 49.6524C406.266 49.8574 406.812 48.5564 407.709 48.2024C408.568 47.9554 409.468 48.4344 409.744 49.2844C409.974 50.1284 409.781 51.0304 409.228 51.7074C408.677 52.3684 408.022 52.9364 407.29 53.3884L407.659 53.6954C408.382 54.4604 409.546 54.6044 410.434 54.0404C411.281 53.4664 411.967 52.6854 412.426 51.7724C414.157 49.0944 415.395 46.1294 416.08 43.0154C416.756 39.8724 416.22 36.5894 414.579 33.8244Z" fill="#AB8900"/>
<path d="M339.785 170.004H277.144C276.622 170.003 276.123 169.796 275.754 169.428C275.385 169.059 275.178 168.559 275.177 168.038V120.474C275.178 119.952 275.385 119.453 275.754 119.085C276.123 118.716 276.622 118.508 277.144 118.507H354.033C354.554 118.508 355.054 118.716 355.422 119.085C355.791 119.453 355.999 119.952 355.999 120.474V153.79C355.994 158.089 354.284 162.211 351.244 165.25C348.205 168.29 344.084 170 339.785 170.004Z" fill="white"/>
<path d="M339.785 170.181H277.144C276.576 170.181 276.031 169.955 275.629 169.553C275.226 169.151 275 168.606 275 168.038V120.473C275 119.905 275.226 119.36 275.629 118.958C276.03 118.555 276.576 118.329 277.144 118.329H354.033C354.602 118.329 355.146 118.555 355.549 118.958C355.951 119.359 356.177 119.905 356.177 120.473V153.789C356.173 158.136 354.444 162.302 351.371 165.375C348.298 168.448 344.132 170.177 339.785 170.181ZM277.144 119.042C276.764 119.042 276.401 119.193 276.132 119.461C275.864 119.73 275.713 120.093 275.713 120.473V168.038C275.713 168.417 275.864 168.781 276.132 169.049C276.401 169.317 276.764 169.469 277.144 169.469H339.785C343.942 169.464 347.928 167.811 350.868 164.872C353.807 161.932 355.46 157.946 355.465 153.789V120.473C355.465 120.093 355.313 119.73 355.045 119.461C354.777 119.193 354.413 119.042 354.033 119.042H277.144Z" fill="#CCCCCC"/>
<path d="M338.834 134.57H292.343C291.917 134.57 291.507 134.4 291.205 134.098C290.903 133.797 290.733 133.387 290.733 132.961C290.733 132.534 290.903 132.125 291.205 131.822C291.507 131.52 291.917 131.352 292.343 131.352H338.834C339.261 131.352 339.67 131.522 339.971 131.823C340.272 132.125 340.441 132.534 340.441 132.961C340.441 133.387 340.272 133.796 339.971 134.097C339.67 134.399 339.261 134.569 338.834 134.57Z" fill="#CCCCCC"/>
<path d="M338.834 145.657H292.343C291.917 145.657 291.507 145.487 291.205 145.185C290.903 144.884 290.733 144.474 290.733 144.048C290.733 143.621 290.903 143.211 291.205 142.909C291.507 142.607 291.917 142.438 292.343 142.438H338.834C339.261 142.438 339.671 142.607 339.972 142.909C340.274 143.211 340.443 143.621 340.443 144.048C340.443 144.474 340.274 144.884 339.972 145.185C339.671 145.487 339.261 145.657 338.834 145.657Z" fill="#CCCCCC"/>
<path d="M338.834 157.06H292.343C291.917 157.06 291.507 156.89 291.205 156.588C290.903 156.287 290.733 155.878 290.733 155.451C290.733 155.024 290.903 154.615 291.205 154.313C291.507 154.011 291.917 153.842 292.343 153.842H338.834C339.261 153.842 339.671 154.011 339.972 154.313C340.274 154.615 340.443 155.024 340.443 155.451C340.443 155.878 340.274 156.287 339.972 156.588C339.671 156.89 339.261 157.06 338.834 157.06Z" fill="#CCCCCC"/>
<path d="M353.456 130.22C358.763 130.22 363.066 125.917 363.066 120.61C363.066 115.302 358.763 111 353.456 111C348.148 111 343.846 115.302 343.846 120.61C343.846 125.917 348.148 130.22 353.456 130.22Z" fill="#A9ACAD"/>
<path d="M352.145 125.612C351.979 125.612 351.816 125.573 351.667 125.499C351.518 125.424 351.389 125.317 351.29 125.184L348.668 121.688C348.584 121.575 348.522 121.448 348.487 121.312C348.453 121.176 348.445 121.034 348.465 120.895C348.485 120.756 348.531 120.623 348.603 120.502C348.675 120.381 348.77 120.276 348.881 120.192C348.994 120.107 349.121 120.046 349.258 120.011C349.394 119.976 349.535 119.969 349.674 119.989C349.813 120.009 349.947 120.056 350.068 120.127C350.188 120.198 350.294 120.293 350.378 120.406L352.093 122.692L356.499 116.084C356.656 115.848 356.901 115.685 357.178 115.629C357.457 115.573 357.746 115.631 357.981 115.788C358.218 115.944 358.381 116.189 358.437 116.468C358.493 116.745 358.435 117.034 358.278 117.27L353.034 125.135C352.939 125.278 352.812 125.395 352.662 125.478C352.513 125.561 352.346 125.606 352.174 125.612H352.145Z" fill="white"/>
<path d="M240.203 178.095H183.641C179.759 178.09 176.038 176.546 173.293 173.802C170.548 171.057 169.005 167.335 169 163.454V133.371C169.001 132.9 169.188 132.449 169.521 132.116C169.854 131.783 170.305 131.596 170.775 131.595H240.203C240.674 131.596 241.125 131.783 241.458 132.116C241.79 132.449 241.978 132.9 241.979 133.371V176.319C241.978 176.79 241.79 177.241 241.458 177.574C241.125 177.907 240.674 178.094 240.203 178.095Z" fill="white"/>
<path d="M240.366 178.095H183.804C179.88 178.091 176.117 176.529 173.342 173.755C170.568 170.98 169.007 167.217 169.002 163.293V133.21C169.003 132.697 169.207 132.204 169.57 131.841C169.933 131.479 170.425 131.274 170.939 131.273H240.366C240.879 131.274 241.372 131.479 241.735 131.841C242.097 132.204 242.302 132.697 242.303 133.21V176.159C242.302 176.672 242.097 177.164 241.735 177.527C241.372 177.89 240.879 178.094 240.366 178.095ZM170.939 131.917C170.596 131.918 170.267 132.054 170.025 132.296C169.783 132.539 169.647 132.867 169.646 133.21V163.293C169.65 167.047 171.144 170.646 173.798 173.3C176.452 175.954 180.05 177.447 183.804 177.451H240.366C240.709 177.451 241.038 177.314 241.28 177.072C241.523 176.83 241.659 176.501 241.659 176.159V133.21C241.659 132.867 241.523 132.539 241.28 132.296C241.037 132.054 240.709 131.918 240.366 131.917H170.939Z" fill="#CCCCCC"/>
<path d="M226.642 145.938H184.663C184.278 145.938 183.908 145.785 183.635 145.513C183.363 145.24 183.21 144.87 183.21 144.485C183.21 144.1 183.363 143.73 183.635 143.457C183.908 143.185 184.278 143.032 184.663 143.032H226.642C227.027 143.032 227.397 143.185 227.67 143.457C227.942 143.73 228.095 144.1 228.095 144.485C228.095 144.87 227.942 145.24 227.67 145.513C227.397 145.785 227.027 145.938 226.642 145.938Z" fill="#CCCCCC"/>
<path d="M226.642 155.949H184.663C184.278 155.949 183.908 155.796 183.635 155.524C183.363 155.251 183.21 154.881 183.21 154.496C183.21 154.111 183.363 153.741 183.635 153.468C183.908 153.196 184.278 153.043 184.663 153.043H226.642C227.027 153.043 227.397 153.196 227.67 153.468C227.942 153.741 228.095 154.111 228.095 154.496C228.095 154.881 227.942 155.251 227.67 155.524C227.397 155.796 227.027 155.949 226.642 155.949Z" fill="#CCCCCC"/>
<path d="M226.642 166.246H184.663C184.278 166.246 183.908 166.092 183.635 165.82C183.363 165.548 183.21 165.178 183.21 164.793C183.21 164.407 183.363 164.038 183.635 163.765C183.908 163.492 184.278 163.339 184.663 163.339H226.642C227.027 163.339 227.397 163.492 227.67 163.765C227.942 164.038 228.095 164.407 228.095 164.793C228.095 165.178 227.942 165.548 227.67 165.82C227.397 166.092 227.027 166.246 226.642 166.246Z" fill="#CCCCCC"/>
<path d="M240.445 142.355C245.237 142.355 249.123 138.471 249.123 133.678C249.123 128.886 245.237 125 240.445 125C235.652 125 231.767 128.886 231.767 133.678C231.767 138.471 235.652 142.355 240.445 142.355Z" fill="#A9ACAD"/>
<path d="M239.261 138.195C239.111 138.195 238.964 138.16 238.829 138.092C238.696 138.025 238.578 137.928 238.489 137.808L236.121 134.652C236.046 134.55 235.99 134.434 235.958 134.312C235.928 134.189 235.92 134.061 235.938 133.936C235.956 133.811 235.998 133.689 236.064 133.581C236.128 133.472 236.213 133.376 236.314 133.3C236.416 133.224 236.532 133.169 236.654 133.137C236.777 133.106 236.905 133.099 237.03 133.117C237.156 133.135 237.276 133.177 237.385 133.242C237.494 133.306 237.59 133.392 237.666 133.493L239.214 135.558L243.193 129.591C243.335 129.378 243.555 129.23 243.807 129.181C244.058 129.13 244.318 129.181 244.531 129.324C244.744 129.466 244.893 129.686 244.942 129.937C244.993 130.189 244.941 130.449 244.799 130.662L240.064 137.765C239.978 137.892 239.864 137.999 239.728 138.073C239.593 138.148 239.443 138.19 239.288 138.194C239.279 138.194 239.27 138.195 239.261 138.195Z" fill="white"/>
<path d="M310.911 210.404H231.767C227.885 210.399 224.164 208.855 221.42 206.111C218.674 203.366 217.131 199.645 217.126 195.763V151.516C217.127 150.909 217.369 150.327 217.797 149.898C218.226 149.469 218.809 149.227 219.415 149.227H310.911C311.517 149.227 312.099 149.469 312.528 149.898C312.956 150.327 313.198 150.909 313.199 151.516V208.115C313.198 208.722 312.957 209.303 312.528 209.732C312.099 210.162 311.517 210.403 310.911 210.404Z" fill="white"/>
<path d="M310.91 210.565H231.767C227.842 210.56 224.08 208.999 221.306 206.224C218.531 203.449 216.97 199.687 216.966 195.763V151.515C216.966 150.866 217.225 150.243 217.684 149.784C218.142 149.325 218.765 149.067 219.415 149.066H310.91C311.56 149.067 312.182 149.325 312.641 149.784C313.101 150.243 313.359 150.866 313.36 151.515V208.115C313.359 208.764 313.101 209.387 312.641 209.846C312.182 210.305 311.56 210.564 310.91 210.565ZM219.415 149.709C218.936 149.709 218.477 149.9 218.138 150.239C217.8 150.577 217.609 151.036 217.609 151.515V195.763C217.613 199.516 219.106 203.115 221.76 205.769C224.414 208.423 228.013 209.916 231.767 209.92H310.91C311.389 209.92 311.848 209.73 312.187 209.391C312.525 209.052 312.715 208.594 312.716 208.115V151.515C312.715 151.036 312.525 150.577 312.187 150.239C311.848 149.9 311.389 149.709 310.91 149.709H219.415Z" fill="#CCCCCC"/>
<path d="M292.823 168.291H237.5C237.249 168.291 237 168.242 236.767 168.146C236.535 168.05 236.323 167.908 236.145 167.73C235.967 167.553 235.826 167.341 235.729 167.109C235.633 166.876 235.583 166.627 235.583 166.375C235.583 166.123 235.633 165.874 235.729 165.642C235.826 165.409 235.967 165.198 236.145 165.021C236.323 164.842 236.535 164.702 236.767 164.605C237 164.509 237.249 164.46 237.5 164.46H292.823C293.075 164.46 293.325 164.509 293.557 164.605C293.79 164.702 294.001 164.842 294.179 165.021C294.358 165.198 294.498 165.409 294.595 165.642C294.691 165.874 294.741 166.123 294.741 166.375C294.741 166.627 294.691 166.876 294.595 167.109C294.498 167.341 294.358 167.553 294.179 167.73C294.001 167.908 293.79 168.05 293.557 168.146C293.325 168.242 293.075 168.291 292.823 168.291Z" fill="#CCCCCC"/>
<path d="M292.823 181.483H237.5C237.249 181.484 237 181.434 236.767 181.338C236.535 181.242 236.323 181.101 236.145 180.923C235.967 180.745 235.826 180.534 235.729 180.302C235.633 180.069 235.583 179.82 235.583 179.568C235.583 179.316 235.633 179.067 235.729 178.835C235.826 178.602 235.967 178.391 236.145 178.213C236.323 178.035 236.535 177.894 236.767 177.798C237 177.702 237.249 177.653 237.5 177.653H292.823C293.331 177.653 293.818 177.854 294.178 178.214C294.537 178.573 294.739 179.06 294.739 179.568C294.739 180.076 294.537 180.563 294.178 180.922C293.818 181.282 293.331 181.483 292.823 181.483Z" fill="#CCCCCC"/>
<path d="M292.823 195.052H237.5C236.993 195.052 236.506 194.85 236.147 194.491C235.788 194.132 235.586 193.645 235.586 193.137C235.586 192.63 235.788 192.142 236.147 191.783C236.506 191.424 236.993 191.222 237.5 191.222H292.823C293.075 191.221 293.324 191.271 293.557 191.367C293.79 191.463 294.001 191.604 294.179 191.782C294.358 191.96 294.498 192.171 294.595 192.404C294.691 192.636 294.741 192.885 294.741 193.137C294.741 193.389 294.691 193.638 294.595 193.871C294.498 194.103 294.358 194.315 294.179 194.492C294.001 194.67 293.79 194.811 293.557 194.907C293.324 195.003 293.075 195.052 292.823 195.052Z" fill="#CCCCCC"/>
<path d="M311.197 163.676C317.264 163.676 322.182 158.758 322.182 152.691C322.182 146.624 317.264 141.706 311.197 141.706C305.131 141.706 300.212 146.624 300.212 152.691C300.212 158.758 305.131 163.676 311.197 163.676Z" fill="#004D71"/>
<path d="M309.7 158.408C309.51 158.408 309.322 158.363 309.153 158.279C308.983 158.194 308.835 158.071 308.721 157.919L305.725 153.923C305.629 153.795 305.559 153.649 305.519 153.493C305.479 153.338 305.47 153.176 305.493 153.018C305.516 152.859 305.57 152.706 305.651 152.567C305.732 152.43 305.841 152.309 305.969 152.213C306.097 152.116 306.244 152.046 306.399 152.006C306.555 151.967 306.716 151.958 306.875 151.981C307.034 152.003 307.187 152.057 307.325 152.139C307.463 152.22 307.584 152.329 307.68 152.457L309.641 155.071L314.676 147.518C314.856 147.248 315.136 147.062 315.453 146.998C315.771 146.935 316.1 147.001 316.37 147.18C316.639 147.36 316.827 147.639 316.89 147.956C316.954 148.274 316.889 148.603 316.709 148.873L310.716 157.863C310.608 158.026 310.462 158.161 310.291 158.255C310.12 158.35 309.928 158.402 309.733 158.407C309.721 158.407 309.71 158.408 309.7 158.408Z" fill="white"/>
<path d="M213.469 222.974C219.848 222.975 225.019 217.803 225.019 211.424C225.019 205.045 219.848 199.873 213.469 199.873C207.089 199.873 201.918 205.045 201.918 211.424C201.918 217.803 207.089 222.974 213.469 222.974Z" fill="#D4D0E9"/>
<path d="M206.97 210.875L210.245 206.095C210.548 205.653 211.152 205.54 211.595 205.843C212.037 206.146 212.15 206.751 211.847 207.193L209.729 210.284H218.026C218.656 210.284 219.166 210.794 219.166 211.424C219.166 212.053 218.656 212.563 218.026 212.563H209.625L211.847 215.806C212.149 216.25 212.035 216.853 211.592 217.155C211.15 217.457 210.548 217.344 210.245 216.904L206.97 212.124C206.753 211.736 206.753 211.263 206.97 210.875Z" fill="white"/>
<path d="M317.851 222.974C311.472 222.975 306.301 217.803 306.301 211.424C306.3 205.045 311.472 199.873 317.851 199.873C324.23 199.873 329.402 205.045 329.402 211.424C329.402 217.803 324.23 222.974 317.851 222.974Z" fill="#D4D0E9"/>
<path d="M324.35 210.875L321.075 206.095C320.772 205.653 320.168 205.54 319.725 205.843C319.282 206.146 319.169 206.751 319.473 207.193L321.59 210.284H313.294C312.664 210.284 312.154 210.794 312.154 211.424C312.154 212.053 312.664 212.563 313.294 212.563H321.695L319.473 215.806C319.171 216.25 319.285 216.853 319.728 217.155C320.17 217.457 320.772 217.344 321.075 216.904L324.35 212.124C324.566 211.736 324.566 211.263 324.35 210.875Z" fill="white"/>
</g>
<defs>
<clipPath id="clip0_3245_1999">
<rect width="511" height="319" fill="white"/>
</clipPath>
</defs>
</svg>
